<svg xmlns="http://www.w3.org/2000/svg" viewBox="0 0 640 360" width="640" height="360" role="img" aria-label="VOICE-ASSISTED PICKING illustration using fictional demo data"><defs><linearGradient id="bg" x1="0" y1="0" x2="1" y2="1"><stop stop-color="#061321"/><stop offset="0.62" stop-color="#0f2b42"/><stop offset="1" stop-color="#071321"/></linearGradient><linearGradient id="glow" x1="0" x2="1"><stop stop-color="#a78bfa" stop-opacity=".22"/><stop offset="1" stop-color="#2563eb" stop-opacity=".05"/></linearGradient></defs><rect width="640" height="360" rx="22" fill="url(#bg)"/><circle cx="570" cy="20" r="166" fill="#a78bfa" opacity=".055"/><circle cx="40" cy="336" r="128" fill="#2563eb" opacity=".08"/><rect x="20" y="20" width="600" height="320" rx="18" fill="#081827" stroke="#2b5669"/><rect x="20" y="20" width="600" height="43" rx="18" fill="#0d2539" stroke="none"/><rect x="20" y="45" width="600" height="18" rx="0" fill="#0d2539" stroke="none"/><circle cx="42" cy="41" r="4" fill="#f87171" stroke="none" stroke-width="1"/><circle cx="55" cy="41" r="4" fill="#fbbf24" stroke="none" stroke-width="1"/><circle cx="68" cy="41" r="4" fill="#34d399" stroke="none" stroke-width="1"/><text x="89" y="46" fill="#bfe7f4" font-family="Arial,Helvetica,sans-serif" font-size="12" font-weight="800" text-anchor="start">CENTRALHUB  /  VOICE-ASSISTED PICKING</text><rect x="508" y="31" width="89" height="22" rx="7" fill="#103148" stroke="none"/><text x="553" y="46" fill="#7dd3fc" font-family="Arial,Helvetica,sans-serif" font-size="9" font-weight="800" text-anchor="middle">DEMO VISUAL</text><rect x="35" y="79" width="570" height="242" rx="15" fill="url(#glow)" stroke="#29536b"/><text x="59" y="134" fill="#f8fafc" font-family="Arial,Helvetica,sans-serif" font-size="18" font-weight="800" text-anchor="start">Hands-free picking</text><text x="59" y="158" fill="#94a3b8" font-family="Arial,Helvetica,sans-serif" font-size="12" font-weight="500" text-anchor="start">Demo order DEMO-1042 · 3 items</text><rect x="51" y="176" width="538" height="121" rx="11" fill="#0c2134" stroke="#27506a"/><text x="64" y="199" fill="#e0f2fe" font-family="Arial,Helvetica,sans-serif" font-size="12" font-weight="700" text-anchor="start">PICKING ASSISTANT</text><circle cx="115" cy="244" r="34" fill="#183a6a" stroke="#a78bfa" stroke-width="3"/><text x="115" y="251" fill="#c4b5fd" font-family="Arial,Helvetica,sans-serif" font-size="15" font-weight="800" text-anchor="middle">MIC</text><text x="173" y="226" fill="#f8fafc" font-family="Arial,Helvetica,sans-serif" font-size="15" font-weight="700" text-anchor="start">Next item: Matta Rice · 5 kg</text><text x="173" y="251" fill="#cbd5e1" font-family="Arial,Helvetica,sans-serif" font-size="12" font-weight="500" text-anchor="start">Aisle 02 · Bin B4 · Qty 1</text><rect x="181" y="268" width="7" height="7" rx="3" fill="#818cf8" stroke="none"/><rect x="200" y="268" width="7" height="13.503104986685706" rx="3" fill="#818cf8" stroke="none"/><rect x="219" y="268" width="7" height="5.407888422602197" rx="3" fill="#818cf8" stroke="none"/><rect x="238" y="268" width="7" height="13.682525263563756" rx="3" fill="#818cf8" stroke="none"/><rect x="257" y="268" width="7" height="16.07968941313391" rx="3" fill="#818cf8" stroke="none"/><rect x="276" y="268" width="7" height="10.830251219593375" rx="3" fill="#818cf8" stroke="none"/><rect x="295" y="268" width="7" height="23.63778837126334" rx="3" fill="#818cf8" stroke="none"/><rect x="314" y="268" width="7" height="3.638837897201597" rx="3" fill="#818cf8" stroke="none"/><rect x="333" y="268" width="7" height="19.347497754436272" rx="3" fill="#818cf8" stroke="none"/><rect x="352" y="268" width="7" height="7.976017741570857" rx="3" fill="#818cf8" stroke="none"/><rect x="371" y="268" width="7" height="11.268757688661845" rx="3" fill="#818cf8" stroke="none"/><rect x="390" y="268" width="7" height="10.459801012635001" rx="3" fill="#818cf8" stroke="none"/><text x="36" y="338" fill="#7c98aa" font-family="Arial,Helvetica,sans-serif" font-size="10" font-weight="400" text-anchor="start">Illustrative sample interface · no live account or customer data</text></svg>